# xmcd CD database file
#
# Track frame offsets:
#	150
#	15815
#	28494
#	46497
#	64342
#	77300
#	97254
#	107851
#	132186
#	145027
#	168158
#	190644
#	206009
#	224605
#	237786
#	256138
#
# Disc length: 3541 seconds
#
# Revision: 0
# Processed by: cddbd v1.5.2PL0 Copyright (c) Steve Scherf et al.
# Submitted via: CDex 1.70beta2
#
DISCID=db0dd310
DTITLE=Dixie Wheels - Honky Tonk and Highways
DYEAR=1900
DGENRE=Country
TTITLE0=Fool Hearted Memory
TTITLE1=Head Over Heels
TTITLE2=Ghostriders
TTITLE3=Someplace Far Away
TTITLE4=She don't love Nobody
TTITLE5=I'm Not That Way Anymore
TTITLE6=From A Jack To A King
TTITLE7=Kawliga
TTITLE8=Rocky Top
TTITLE9=Leaving On A Jetplane
TTITLE10=Teach Your Children - Wasted On The Way
TTITLE11=Silver Wings
TTITLE12=Sing Me Back Home
TTITLE13=I Don't Care
TTITLE14=Sylvia's Mother
TTITLE15=Salt Creek
EXTD=
EXTT0=
EXTT1=
EXTT2=
EXTT3=
EXTT4=
EXTT5=
EXTT6=
EXTT7=
EXTT8=
EXTT9=
EXTT10=
EXTT11=
EXTT12=
EXTT13=
EXTT14=
EXTT15=
PLAYORDER=
